<?xml version="1.0" encoding="UTF-8" standalone="no"?><!-- Generator: Gravit.io --><svg xmlns="http://www.w3.org/2000/svg" xmlns:xlink="http://www.w3.org/1999/xlink" style="isolation:isolate" viewBox="0 0 933.862 431.465" width="933.862pt" height="431.465pt"><defs><clipPath id="_clipPath_NjtEIypZlh4h0AtYlZh1hZmyKGt14XPT"><rect width="933.862" height="431.465"/></clipPath></defs><g clip-path="url(#_clipPath_NjtEIypZlh4h0AtYlZh1hZmyKGt14XPT)"><g><g><path d=" M 896.757 217.705 L 926.413 217.705 C 930.525 217.705 933.862 221.043 933.862 225.154 L 933.862 383.763 C 933.862 387.875 930.525 391.213 926.413 391.213 L 896.757 391.213 C 892.646 391.213 889.308 387.875 889.308 383.763 L 889.308 225.154 C 889.308 221.043 892.646 217.705 896.757 217.705 Z " fill="rgb(105,178,166)"/><path d=" M 868.335 315.47 L 904.619 315.47 C 906.901 315.47 908.754 317.323 908.754 319.605 L 908.754 364.8 C 908.754 367.083 906.901 368.935 904.619 368.935 L 868.335 368.935 C 866.052 368.935 864.199 367.083 864.199 364.8 L 864.199 319.605 C 864.199 317.323 866.052 315.47 868.335 315.47 Z " fill="rgb(105,178,166)"/><path d=" M 760.355 383.763 L 760.355 354.107 C 760.355 349.996 763.693 346.658 767.804 346.658 L 926.413 346.658 C 930.525 346.658 933.862 349.996 933.862 354.107 L 933.862 383.763 C 933.862 387.875 930.525 391.213 926.413 391.213 L 767.804 391.213 C 763.693 391.213 760.355 387.875 760.355 383.763 Z " fill="rgb(105,178,166)"/></g><path d=" M 586.848 217.705 C 586.848 121.944 664.594 44.198 760.355 44.198 C 856.116 44.198 933.862 121.944 933.862 217.705 C 933.862 313.467 856.116 391.213 760.355 391.213 C 664.594 391.213 586.848 313.467 586.848 217.705 Z  M 641.273 217.705 C 641.273 151.982 694.632 98.623 760.355 98.623 C 826.078 98.623 879.437 151.982 879.437 217.705 C 879.437 283.428 826.078 336.787 760.355 336.787 C 694.632 336.787 641.273 283.428 641.273 217.705 Z " fill-rule="evenodd" fill="rgb(105,178,166)"/><clipPath id="_clipPath_ffJnJuJnwzJTGnWLlkPuMgdH7MhW67cp"><path d=" M 586.848 217.705 C 586.848 121.944 664.594 44.198 760.355 44.198 C 856.116 44.198 933.862 121.944 933.862 217.705 C 933.862 313.467 856.116 391.213 760.355 391.213 C 664.594 391.213 586.848 313.467 586.848 217.705 Z  M 641.273 217.705 C 641.273 151.982 694.632 98.623 760.355 98.623 C 826.078 98.623 879.437 151.982 879.437 217.705 C 879.437 283.428 826.078 336.787 760.355 336.787 C 694.632 336.787 641.273 283.428 641.273 217.705 Z " fill-rule="evenodd" fill="rgb(105,178,166)"/></clipPath><g clip-path="url(#_clipPath_ffJnJuJnwzJTGnWLlkPuMgdH7MhW67cp)"><rect x="582.393" y="16.352" width="179.246" height="413.243" transform="matrix(1,0,0,1,0,0)" fill="rgb(55,55,55)"/></g><rect x="754.007" y="36.401" width="12.697" height="358.663" transform="matrix(1,0,0,1,0,0)" fill="rgb(255,255,255)"/><circle vector-effect="non-scaling-stroke" cx="760.3552192320889" cy="217.705293522437" r="119.08197648602493" fill="rgb(255,255,255)"/></g><g clip-path="url(#_clipPath_bWiGoMPHqnU2ivJDVoHpN67dpTonhtec)"><text transform="matrix(1.548,0,0,1.548,0,390.575)" style="font-family:'Ubuntu';font-weight:400;font-size:304px;font-style:normal;fill:#373737;stroke:none;">VT</text></g><defs><clipPath id="_clipPath_bWiGoMPHqnU2ivJDVoHpN67dpTonhtec"><rect x="0" y="0" width="473.988" height="278.697" transform="matrix(1.548,0,0,1.548,0,0)"/></clipPath></defs></g></svg>