<?xml version="1.0" encoding="UTF-8" standalone="no"?><!-- Generator: Gravit.io --><svg xmlns="http://www.w3.org/2000/svg" xmlns:xlink="http://www.w3.org/1999/xlink" style="isolation:isolate" viewBox="540.493 243.668 1364.245 358.663" width="1364.245pt" height="358.663pt"><defs><clipPath id="_clipPath_NZbFwyVO5OLcFWaYuONR1KE8eZ6LvDWG"><rect x="540.493" y="243.668" width="1364.245" height="358.663"/></clipPath></defs><g clip-path="url(#_clipPath_NZbFwyVO5OLcFWaYuONR1KE8eZ6LvDWG)"><g><g><path d=" M 850.402 424.973 L 880.058 424.973 C 884.169 424.973 887.507 428.31 887.507 432.422 L 887.507 591.031 C 887.507 595.142 884.169 598.48 880.058 598.48 L 850.402 598.48 C 846.291 598.48 842.953 595.142 842.953 591.031 L 842.953 432.422 C 842.953 428.31 846.291 424.973 850.402 424.973 Z " fill="rgb(242,132,158)"/><path d=" M 821.979 522.737 L 858.264 522.737 C 860.546 522.737 862.399 524.59 862.399 526.872 L 862.399 572.068 C 862.399 574.35 860.546 576.203 858.264 576.203 L 821.979 576.203 C 819.697 576.203 817.844 574.35 817.844 572.068 L 817.844 526.872 C 817.844 524.59 819.697 522.737 821.979 522.737 Z " fill="rgb(242,132,158)"/><path d=" M 714 591.031 L 714 561.375 C 714 557.263 717.338 553.925 721.449 553.925 L 880.058 553.925 C 884.169 553.925 887.507 557.263 887.507 561.375 L 887.507 591.031 C 887.507 595.142 884.169 598.48 880.058 598.48 L 721.449 598.48 C 717.338 598.48 714 595.142 714 591.031 Z " fill="rgb(242,132,158)"/></g><path d=" M 540.493 424.973 C 540.493 329.211 618.239 251.465 714 251.465 C 809.761 251.465 887.507 329.211 887.507 424.973 C 887.507 520.734 809.761 598.48 714 598.48 C 618.239 598.48 540.493 520.734 540.493 424.973 Z  M 594.918 424.973 C 594.918 359.249 648.277 305.891 714 305.891 C 779.723 305.891 833.082 359.249 833.082 424.973 C 833.082 490.696 779.723 544.055 714 544.055 C 648.277 544.055 594.918 490.696 594.918 424.973 Z " fill-rule="evenodd" fill="rgb(242,132,158)"/><clipPath id="_clipPath_ThJ4TToxRgWzTAsT3PsiQ4VRhTLNBu2M"><path d=" M 540.493 424.973 C 540.493 329.211 618.239 251.465 714 251.465 C 809.761 251.465 887.507 329.211 887.507 424.973 C 887.507 520.734 809.761 598.48 714 598.48 C 618.239 598.48 540.493 520.734 540.493 424.973 Z  M 594.918 424.973 C 594.918 359.249 648.277 305.891 714 305.891 C 779.723 305.891 833.082 359.249 833.082 424.973 C 833.082 490.696 779.723 544.055 714 544.055 C 648.277 544.055 594.918 490.696 594.918 424.973 Z " fill-rule="evenodd" fill="rgb(242,132,158)"/></clipPath><g clip-path="url(#_clipPath_ThJ4TToxRgWzTAsT3PsiQ4VRhTLNBu2M)"><rect x="536.037" y="223.619" width="179.246" height="413.243" transform="matrix(1,0,0,1,0,0)" fill="rgb(55,55,55)"/></g><rect x="703.579" y="243.668" width="20.841" height="358.663" transform="matrix(1,0,0,1,0,0)" fill="rgb(255,255,255)"/><circle vector-effect="non-scaling-stroke" cx="713.9999999999999" cy="424.97259309086485" r="119.08197648602493" fill="rgb(255,255,255)"/></g><text transform="matrix(1.977,0,0,1.977,930,316.473)" style="font-family:'Ubuntu';font-weight:700;font-size:50px;font-style:normal;font-variant-ligatures:none;fill:#373737;stroke:none;">Center for Quantum </text><text transform="matrix(1.977,0,0,1.977,930,372.523)" style="font-family:'Ubuntu';font-weight:700;font-size:50px;font-style:normal;font-variant-ligatures:none;fill:#373737;stroke:none;">Information Science </text><text transform="matrix(1.977,0,0,1.977,930,428.573)" style="font-family:'Ubuntu';font-weight:700;font-size:50px;font-style:normal;font-variant-ligatures:none;fill:#373737;stroke:none;">and Engineering </text></g></svg>