<?xml version="1.0" encoding="UTF-8" standalone="no"?><!-- Generator: Gravit.io --><svg xmlns="http://www.w3.org/2000/svg" xmlns:xlink="http://www.w3.org/1999/xlink" style="isolation:isolate" viewBox="1081.493 564.668 347.014 358.663" width="347.014pt" height="358.663pt"><defs><clipPath id="_clipPath_wCJ6JmLpEo2Uj43erxB9BCjo6uAM0xeu"><rect x="1081.493" y="564.668" width="347.014" height="358.663"/></clipPath></defs><g clip-path="url(#_clipPath_wCJ6JmLpEo2Uj43erxB9BCjo6uAM0xeu)"><g><g><path d=" M 1391.402 745.973 L 1421.058 745.973 C 1425.169 745.973 1428.507 749.31 1428.507 753.422 L 1428.507 912.031 C 1428.507 916.142 1425.169 919.48 1421.058 919.48 L 1391.402 919.48 C 1387.291 919.48 1383.953 916.142 1383.953 912.031 L 1383.953 753.422 C 1383.953 749.31 1387.291 745.973 1391.402 745.973 Z " fill="rgb(105,178,166)"/><path d=" M 1362.979 843.737 L 1399.264 843.737 C 1401.546 843.737 1403.399 845.59 1403.399 847.872 L 1403.399 893.068 C 1403.399 895.35 1401.546 897.203 1399.264 897.203 L 1362.979 897.203 C 1360.697 897.203 1358.844 895.35 1358.844 893.068 L 1358.844 847.872 C 1358.844 845.59 1360.697 843.737 1362.979 843.737 Z " fill="rgb(105,178,166)"/><path d=" M 1255 912.031 L 1255 882.375 C 1255 878.263 1258.338 874.925 1262.449 874.925 L 1421.058 874.925 C 1425.169 874.925 1428.507 878.263 1428.507 882.375 L 1428.507 912.031 C 1428.507 916.142 1425.169 919.48 1421.058 919.48 L 1262.449 919.48 C 1258.338 919.48 1255 916.142 1255 912.031 Z " fill="rgb(105,178,166)"/></g><path d=" M 1081.493 745.973 C 1081.493 650.211 1159.239 572.465 1255 572.465 C 1350.761 572.465 1428.507 650.211 1428.507 745.973 C 1428.507 841.734 1350.761 919.48 1255 919.48 C 1159.239 919.48 1081.493 841.734 1081.493 745.973 Z  M 1135.918 745.973 C 1135.918 680.249 1189.277 626.891 1255 626.891 C 1320.723 626.891 1374.082 680.249 1374.082 745.973 C 1374.082 811.696 1320.723 865.055 1255 865.055 C 1189.277 865.055 1135.918 811.696 1135.918 745.973 Z " fill-rule="evenodd" fill="rgb(105,178,166)"/><clipPath id="_clipPath_aYvksph7rU0vrbZVbURVLC4U7sliltwg"><path d=" M 1081.493 745.973 C 1081.493 650.211 1159.239 572.465 1255 572.465 C 1350.761 572.465 1428.507 650.211 1428.507 745.973 C 1428.507 841.734 1350.761 919.48 1255 919.48 C 1159.239 919.48 1081.493 841.734 1081.493 745.973 Z  M 1135.918 745.973 C 1135.918 680.249 1189.277 626.891 1255 626.891 C 1320.723 626.891 1374.082 680.249 1374.082 745.973 C 1374.082 811.696 1320.723 865.055 1255 865.055 C 1189.277 865.055 1135.918 811.696 1135.918 745.973 Z " fill-rule="evenodd" fill="rgb(105,178,166)"/></clipPath><g clip-path="url(#_clipPath_aYvksph7rU0vrbZVbURVLC4U7sliltwg)"><rect x="1077.037" y="544.619" width="179.246" height="413.243" transform="matrix(1,0,0,1,0,0)" fill="rgb(55,55,55)"/></g><rect x="1248.652" y="564.668" width="12.697" height="358.663" transform="matrix(1,0,0,1,0,0)" fill="rgb(255,255,255)"/><circle vector-effect="non-scaling-stroke" cx="1255" cy="745.9725930908648" r="119.08197648602481" fill="rgb(255,255,255)"/></g></g></svg>