<?xml version="1.0" encoding="UTF-8" standalone="no"?><!-- Generator: Gravit.io --><svg xmlns="http://www.w3.org/2000/svg" xmlns:xlink="http://www.w3.org/1999/xlink" style="isolation:isolate" viewBox="0 0 347.014 358.663" width="347.014pt" height="358.663pt"><defs><clipPath id="_clipPath_aaLMWExwuQxxtE8CUjOCyRsayzuhw5Ja"><rect x="0" y="0" width="347.014" height="358.663"/></clipPath></defs><g clip-path="url(#_clipPath_aaLMWExwuQxxtE8CUjOCyRsayzuhw5Ja)"><g><g><path d=" M 309.909 181.304 L 339.565 181.304 C 343.677 181.304 347.014 184.642 347.014 188.753 L 347.014 347.362 C 347.014 351.474 343.677 354.812 339.565 354.812 L 309.909 354.812 C 305.798 354.812 302.46 351.474 302.46 347.362 L 302.46 188.753 C 302.46 184.642 305.798 181.304 309.909 181.304 Z " fill="rgb(242,132,158)"/><path d=" M 281.487 279.069 L 317.771 279.069 C 320.053 279.069 321.906 280.922 321.906 283.204 L 321.906 328.399 C 321.906 330.681 320.053 332.534 317.771 332.534 L 281.487 332.534 C 279.204 332.534 277.351 330.681 277.351 328.399 L 277.351 283.204 C 277.351 280.922 279.204 279.069 281.487 279.069 Z " fill="rgb(242,132,158)"/><path d=" M 173.507 347.362 L 173.507 317.706 C 173.507 313.595 176.845 310.257 180.956 310.257 L 339.565 310.257 C 343.677 310.257 347.014 313.595 347.014 317.706 L 347.014 347.362 C 347.014 351.474 343.677 354.812 339.565 354.812 L 180.956 354.812 C 176.845 354.812 173.507 351.474 173.507 347.362 Z " fill="rgb(242,132,158)"/></g><path d=" M 0 181.304 C 0 85.543 77.746 7.797 173.507 7.797 C 269.269 7.797 347.014 85.543 347.014 181.304 C 347.014 277.066 269.269 354.812 173.507 354.812 C 77.746 354.812 0 277.066 0 181.304 Z  M 54.425 181.304 C 54.425 115.581 107.784 62.222 173.507 62.222 C 239.23 62.222 292.589 115.581 292.589 181.304 C 292.589 247.027 239.23 300.386 173.507 300.386 C 107.784 300.386 54.425 247.027 54.425 181.304 Z " fill-rule="evenodd" fill="rgb(242,132,158)"/><clipPath id="_clipPath_OqNFzS6HmOaxibLPDQplnDVOsXMGWn3I"><path d=" M 0 181.304 C 0 85.543 77.746 7.797 173.507 7.797 C 269.269 7.797 347.014 85.543 347.014 181.304 C 347.014 277.066 269.269 354.812 173.507 354.812 C 77.746 354.812 0 277.066 0 181.304 Z  M 54.425 181.304 C 54.425 115.581 107.784 62.222 173.507 62.222 C 239.23 62.222 292.589 115.581 292.589 181.304 C 292.589 247.027 239.23 300.386 173.507 300.386 C 107.784 300.386 54.425 247.027 54.425 181.304 Z " fill-rule="evenodd" fill="rgb(242,132,158)"/></clipPath><g clip-path="url(#_clipPath_OqNFzS6HmOaxibLPDQplnDVOsXMGWn3I)"><rect x="-4.455" y="-20.05" width="179.246" height="413.243" transform="matrix(1,0,0,1,0,0)" fill="rgb(55,55,55)"/></g><rect x="163.087" y="0" width="20.841" height="358.663" transform="matrix(1,0,0,1,0,0)" fill="rgb(255,255,255)"/><circle vector-effect="non-scaling-stroke" cx="173.50723921357257" cy="181.3042685827869" r="119.08197648602491" fill="rgb(255,255,255)"/></g></g></svg>